<?xml version="1.0" encoding="UTF-8" standalone="no"?>
<svg
   fill="currentColor"
   height="48"
   width="48"
   version="1.1"
   id="svg1119"
   sodipodi:docname="email.svg"
   inkscape:version="1.1.2 (b8e25be8, 2022-02-05)"
   xmlns:inkscape="http://www.inkscape.org/namespaces/inkscape"
   xmlns:sodipodi="http://sodipodi.sourceforge.net/DTD/sodipodi-0.dtd"
   xmlns="http://www.w3.org/2000/svg"
   xmlns:svg="http://www.w3.org/2000/svg">
  <defs
     id="defs1123" />
  <sodipodi:namedview
     id="namedview1121"
     pagecolor="#ffffff"
     bordercolor="#666666"
     borderopacity="1.0"
     inkscape:pageshadow="2"
     inkscape:pageopacity="0.0"
     inkscape:pagecheckerboard="0"
     showgrid="false"
     inkscape:zoom="13.541667"
     inkscape:cx="9.4153846"
     inkscape:cy="24"
     inkscape:window-width="1440"
     inkscape:window-height="872"
     inkscape:window-x="0"
     inkscape:window-y="28"
     inkscape:window-maximized="0"
     inkscape:current-layer="svg1119" />
  <path
     d="M7 40Q5.8 40 4.9 39.1Q4 38.2 4 37V11Q4 9.8 4.9 8.9Q5.8 8 7 8H41Q42.2 8 43.1 8.9Q44 9.8 44 11V37Q44 38.2 43.1 39.1Q42.2 40 41 40ZM24 24.9 7 13.75V37Q7 37 7 37Q7 37 7 37H41Q41 37 41 37Q41 37 41 37V13.75ZM24 21.9 40.8 11H7.25ZM7 13.75V11V13.75V37Q7 37 7 37Q7 37 7 37Q7 37 7 37Q7 37 7 37Z"
     id="path1117"
     style="fill:#119977;fill-opacity:1" />
</svg>
